<svg xmlns="http://www.w3.org/2000/svg" xmlns:xlink="http://www.w3.org/1999/xlink" width="19" height="16" version="1.1" viewBox="0 0 19 16"><title>Group 449</title><desc>Created with Sketch.</desc><defs><polygon id="path-1" points="0 0 2 0 2 2 0 2"/><polygon id="path-3" points="0 0 2 0 2 2 0 2"/><polygon id="path-5" points="0 0 2 0 2 2 0 2"/><polygon id="path-7" points="0 0 12 0 12 2 0 2"/><polygon id="path-9" points="0 0 12 0 12 2 0 2"/><polygon id="path-11" points="0 0 12 0 12 2 0 2"/></defs><g id="Page-2" fill="none" fill-rule="evenodd" stroke="none" stroke-width="1"><g id="071519_Airlift_PyTorchOrg_HubCompactTemplate_v2" transform="translate(-1149.000000, -532.000000)"><polygon id="Fill-273" fill="#F3F4F7" points="0 0 1440 0 1440 1302 0 1302"/><g id="Group-449" transform="translate(1150.000000, 533.000000)"><g id="Group-433"><mask id="mask-2" fill="#fff"><use xlink:href="#path-1"/></mask><polygon id="Fill-431" fill="#979797" fill-opacity=".25" points="-5 -5 7 -5 7 7 -5 7" mask="url(#mask-2)"/></g><g id="Group-436" transform="translate(0.000000, 6.000000)"><mask id="mask-4" fill="#fff"><use xlink:href="#path-3"/></mask><polygon id="Fill-434" fill="#979797" fill-opacity=".25" points="-5 -5 7 -5 7 7 -5 7" mask="url(#mask-4)"/></g><g id="Group-439" transform="translate(0.000000, 12.000000)"><mask id="mask-6" fill="#fff"><use xlink:href="#path-5"/></mask><polygon id="Fill-437" fill="#979797" fill-opacity=".25" points="-5 -5 7 -5 7 7 -5 7" mask="url(#mask-6)"/></g><g id="Group-442" transform="translate(4.000000, 0.000000)"><mask id="mask-8" fill="#fff"><use xlink:href="#path-7"/></mask><polygon id="Fill-440" fill="#979797" fill-opacity=".25" points="-5 -5 17 -5 17 7 -5 7" mask="url(#mask-8)"/></g><g id="Group-445" transform="translate(4.000000, 6.000000)"><mask id="mask-10" fill="#fff"><use xlink:href="#path-9"/></mask><polygon id="Fill-443" fill="#979797" fill-opacity=".25" points="-5 -5 17 -5 17 7 -5 7" mask="url(#mask-10)"/></g><g id="Group-448" transform="translate(4.000000, 12.000000)"><mask id="mask-12" fill="#fff"><use xlink:href="#path-11"/></mask><polygon id="Fill-446" fill="#979797" fill-opacity=".25" points="-5 -5 17 -5 17 7 -5 7" mask="url(#mask-12)"/></g></g></g></g></svg>