<svg xmlns="http://www.w3.org/2000/svg" xmlns:xlink="http://www.w3.org/1999/xlink" width="26" height="24" version="1.1" viewBox="0 0 26 24"><title>071519_Airlift_PyTorchOrg_HubCompactTemplate_v2</title><desc>Created with Sketch.</desc><defs><polygon id="path-1" points="0 0 2 0 2 2 0 2"/><polygon id="path-3" points="0 0 2 0 2 2 0 2"/><polygon id="path-5" points="0 0 2 0 2 2 0 2"/><polygon id="path-7" points="0 0 12 0 12 2 0 2"/><polygon id="path-9" points="0 0 12 0 12 2 0 2"/><polygon id="path-11" points="0 0 12 0 12 2 0 2"/></defs><g id="Page-3" fill="none" fill-rule="evenodd" stroke="none" stroke-width="1"><g id="071519_Airlift_PyTorchOrg_HubCompactTemplate_v2" transform="translate(-1145.000000, -528.000000)"><polygon id="Fill-514" fill="#F3F4F7" points="0 0 1440 0 1440 1302 0 1302"/><g id="Group-653" transform="translate(1150.000000, 533.000000)"><mask id="mask-2" fill="#fff"><use xlink:href="#path-1"/></mask><polygon id="Fill-651" fill="#979797" points="-5 -5 7 -5 7 7 -5 7" mask="url(#mask-2)"/></g><g id="Group-656" transform="translate(1150.000000, 539.000000)"><mask id="mask-4" fill="#fff"><use xlink:href="#path-3"/></mask><polygon id="Fill-654" fill="#979797" points="-5 -5 7 -5 7 7 -5 7" mask="url(#mask-4)"/></g><g id="Group-659" transform="translate(1150.000000, 545.000000)"><mask id="mask-6" fill="#fff"><use xlink:href="#path-5"/></mask><polygon id="Fill-657" fill="#979797" points="-5 -5 7 -5 7 7 -5 7" mask="url(#mask-6)"/></g><g id="Group-662" transform="translate(1154.000000, 533.000000)"><mask id="mask-8" fill="#fff"><use xlink:href="#path-7"/></mask><polygon id="Fill-660" fill="#979797" points="-5 -5 17 -5 17 7 -5 7" mask="url(#mask-8)"/></g><g id="Group-665" transform="translate(1154.000000, 539.000000)"><mask id="mask-10" fill="#fff"><use xlink:href="#path-9"/></mask><polygon id="Fill-663" fill="#979797" points="-5 -5 17 -5 17 7 -5 7" mask="url(#mask-10)"/></g><g id="Group-668" transform="translate(1154.000000, 545.000000)"><mask id="mask-12" fill="#fff"><use xlink:href="#path-11"/></mask><polygon id="Fill-666" fill="#979797" points="-5 -5 17 -5 17 7 -5 7" mask="url(#mask-12)"/></g></g></g></svg>