<svg xmlns="http://www.w3.org/2000/svg" xmlns:xlink="http://www.w3.org/1999/xlink" width="16" height="16" version="1.1" viewBox="0 0 16 16"><desc>Created with Sketch.</desc><g id="desktop" fill="none" fill-rule="evenodd" stroke="none" stroke-width="1" opacity=".315"><g id="01_Homepage" fill="#000" fill-rule="nonzero" transform="translate(-610.000000, -1772.000000)"><g id="content" transform="translate(-1.000000, 735.000000)"><g id="community" transform="translate(0.000000, 722.000000)"><g id="showcased-projects"><g transform="translate(100.000000, 93.000000)"><g id="Group-11" transform="translate(428.000000, 190.000000)"><g id="noun_link_1119743" transform="translate(83.000000, 32.000000)"><g id="Group"><path id="Shape" d="M14.497561,13.795122 C14.497561,14.1853659 14.1853659,14.497561 13.795122,14.497561 L2.20487805,14.497561 C1.81463415,14.497561 1.50243902,14.1853659 1.50243902,13.795122 L1.50243902,2.20487805 C1.50243902,1.81463415 1.81463415,1.50243902 2.20487805,1.50243902 L6.77073171,1.50243902 L6.77073171,0.0975609756 L2.20487805,0.0975609756 C1.03414634,0.0975609756 0.0975609756,1.03414634 0.0975609756,2.20487805 L0.0975609756,13.795122 C0.0975609756,14.9658537 1.03414634,15.902439 2.20487805,15.902439 L13.795122,15.902439 C14.9658537,15.902439 15.902439,14.9658537 15.902439,13.795122 L15.902439,9.22926829 L14.497561,9.22926829 L14.497561,13.795122 Z"/><polygon id="Shape" points="9.229 .098 9.229 1.502 13.502 1.502 7.98 7.024 8.976 8.02 14.498 2.498 14.498 6.771 15.902 6.771 15.902 .098"/></g></g></g></g></g></g></g></g></g></svg>