<svg xmlns="http://www.w3.org/2000/svg" xmlns:xlink="http://www.w3.org/1999/xlink" width="24" height="19" version="1.1" viewBox="0 0 24 19"><desc>Created with Sketch.</desc><defs><polygon id="path-1" points=".02 .039 17.013 .039 17.013 15.858 .02 15.858"/><polygon id="path-3" points="0 .059 13.946 .059 13.946 16.802 0 16.802"/></defs><g id="desktop" fill="none" fill-rule="evenodd" stroke="none" stroke-width="1" opacity=".5"><g id="01_Homepage" transform="translate(-981.000000, -3943.000000)"><g id="GetStarted" transform="translate(0.000000, 3522.000000)"><g id="Via-CLoud" transform="translate(953.000000, 71.000000)"><g id="Button" transform="translate(0.000000, 328.000000)"><g id="Cloud_Azure" transform="translate(28.000000, 22.000000)"><g id="Page-1"><g id="Group-3" transform="translate(6.926582, 2.674876)"><defs><filter id="Adobe_OpacityMaskFilter" width="17" height="15.8" x="0" y="0" filterUnits="userSpaceOnUse"><feColorMatrix type="matrix" values="1 0 0 0 0 0 1 0 0 0 0 0 1 0 0 0 0 0 1 0"/></filter></defs><mask id="mask-2" width="17" height="15.8" x="0" y="0" maskUnits="userSpaceOnUse"><g filter="url(#Adobe_OpacityMaskFilter)"><polygon id="path-1" fill="#FFF" points="0 0 17 0 17 15.9 0 15.9"/></g></mask><path id="Fill-1" fill="#262626" d="M7.8,0.3C6.7,2.5,5.6,4.7,4.5,6.8C4.4,7.1,4.5,7.2,4.6,7.4 c1.9,2.2,3.9,4.5,5.8,6.7c0.1,0.1,0.2,0.2,0.3,0.4C7.1,14.8,3.6,15.3,0,15.7c0,0,0,0,0,0c5.6,0.1,11.3,0.1,17,0.2 C14,10.5,11,5.3,8,0C7.9,0.1,7.9,0.2,7.8,0.3" mask="url(#mask-2)"/></g><g id="Group-6" transform="translate(0.000000, 0.001458)"><defs><filter id="Adobe_OpacityMaskFilter_1_" width="13.9" height="16.7" x="0" y=".1" filterUnits="userSpaceOnUse"><feColorMatrix type="matrix" values="1 0 0 0 0 0 1 0 0 0 0 0 1 0 0 0 0 0 1 0"/></filter></defs><mask id="mask-4" width="13.9" height="16.7" x="0" y=".1" maskUnits="userSpaceOnUse"><g filter="url(#Adobe_OpacityMaskFilter_1_)"><polygon id="path-3" fill="#FFF" points="0 .1 13.9 .1 13.9 16.8 0 16.8"/></g></mask><path id="Fill-4" fill="#262626" d="M13.9,0.1C13.9,0.1,13.9,0.1,13.9,0.1c-0.1,0-0.1,0-0.2,0.1 c-2.5,2.1-4.9,4.1-7.4,6.2C6.1,6.6,5.9,6.8,5.8,7C4,10,2.2,13,0.5,16c-0.2,0.3-0.3,0.5-0.5,0.8c0.2,0,0.3,0,0.4,0 c0.6-0.1,1.1-0.1,1.7-0.2c0.9-0.1,1.7-0.2,2.6-0.3c0.3,0,0.5-0.1,0.6-0.4c2.5-4.5,4.9-9,7.4-13.5 C13.1,1.7,13.5,0.9,13.9,0.1" mask="url(#mask-4)"/></g></g></g></g></g></g></g></g></svg>